# xmcd
# Track frame offsets:
# 150
# 16675
# 39819
# 54859
# 78193
# 94846
# 111644
# 129989
# 145715
# 175351
# 192204
# 220692
# 242484
# 260159
#
# Disc length: 3685 seconds
# Revision: 0
# Processed by: cddbd v1.4PL0 Copyright (c) Steve Scherf et al.
# Submitted via: VisiTrax 2.9.5.181 - For more info visit www.synapsa.com
#
DISCID=b20e630e
DTITLE=R.L. Burnside - Wish I Was In Heaven Sitting Down
DYEAR=1996
DGENRE=Country Blues
TTITLE0=Too Many Ups
TTITLE1=Got Messed Up
TTITLE2=Miss Maybelle
TTITLE3=Hard Time Killin' Floor
TTITLE4=Wish I Was In Heaven
TTITLE5=Nothin' Man
TTITLE6=See What My Buddy Done
TTITLE7=My Eyes Keep Me In Trouble
TTITLE8=Bad Luck City
TTITLE9=Chain Of Fools
TTITLE10=R.L.'s Story
TTITLE11=Black Mattie (Robert Belfour)
TTITLE12=Pucker Up Buttercup (Paul Jones)
TTITLE13=Laugh To Keep From Crying (Kenny Brown)
EXTD=Fat Possum Records
EXTT0=
EXTT1=
EXTT2=
EXTT3=
EXTT4=
EXTT5=
EXTT6=
EXTT7=
EXTT8=
EXTT9=
EXTT10=
EXTT11=
EXTT12=
EXTT13=
PLAYORDER=
